<?xml version="1.0" encoding="UTF-8"?>
<svg xmlns="http://www.w3.org/2000/svg" xmlns:xlink="http://www.w3.org/1999/xlink" width="64px" height="32px" viewBox="0 0 201 32" version="1.1">
<g id="surface3">
<path style=" stroke:none;fill-rule:nonzero;fill:rgb(100%,100%,100%);fill-opacity:1;" d="M 23.519531 0.738281 C 17.023438 0.738281 10.246094 2.203125 3.402344 4.101562 C 2.535156 4.277344 1.6875 4.847656 1.238281 5.550781 C 0.828125 6.214844 0.675781 6.878906 0.546875 7.578125 C -0.117188 11.308594 -0.0351562 14.96875 0.101562 19.027344 C 0.132812 19.957031 0.269531 21.054688 0.703125 21.726562 C 1.15625 22.402344 1.933594 22.832031 2.859375 22.972656 C 4.039062 23.144531 5.226562 23.292969 6.417969 23.414062 L 6.15625 30.738281 C 6.113281 31.320312 6.398438 31.804688 6.75 32.085938 C 7.066406 32.324219 7.421875 32.433594 7.78125 32.457031 C 8.503906 32.515625 9.355469 32.203125 9.773438 31.402344 C 11.621094 27.84375 12.777344 26.273438 15.085938 23.910156 C 21.109375 24.058594 26.363281 23.722656 32.3125 23.28125 C 34.417969 23.226562 35.859375 21.503906 36.242188 20.128906 C 37.382812 16.566406 37.5625 12.167969 37.683594 7.71875 C 37.734375 5.957031 37.121094 4.226562 36.042969 3.3125 C 35.015625 2.476562 33.769531 2.175781 32.628906 1.867188 C 29.460938 1.148438 26.292969 0.761719 23.519531 0.738281 Z M 32.175781 3.527344 C 33.316406 3.839844 34.324219 4.136719 34.957031 4.652344 C 36.019531 5.78125 35.980469 6.53125 35.96875 7.75 C 35.847656 12.0625 35.640625 16.246094 34.667969 19.417969 C 34.25 20.601562 33.519531 21.445312 32.140625 21.570312 C 26.078125 22.019531 20.820312 22.367188 14.726562 22.195312 C 14.484375 22.1875 14.253906 22.277344 14.085938 22.449219 C 11.523438 25.039062 10.214844 26.835938 8.265625 30.597656 C 8.21875 30.683594 8.121094 30.734375 8 30.746094 C 7.917969 30.738281 7.882812 30.675781 7.878906 30.621094 L 8.144531 22.675781 C 8.160156 22.25 7.804688 21.839844 7.378906 21.792969 C 5.957031 21.65625 4.539062 21.484375 3.125 21.269531 C 2.515625 21.175781 2.289062 21.007812 2.121094 20.761719 C 1.832031 20.066406 1.835938 19.636719 1.816406 18.96875 C 1.679688 14.949219 1.613281 11.433594 2.226562 7.9375 C 2.285156 7.417969 2.476562 6.890625 2.683594 6.449219 C 3.023438 5.917969 3.542969 5.839844 4.066406 5.695312 C 10.757812 3.84375 17.304688 2.460938 23.464844 2.457031 C 26.488281 2.566406 29.660156 2.867188 32.175781 3.527344 Z M 9.0625 10.339844 C 8.144531 11.445312 8.234375 12.949219 8.945312 13.953125 C 9.316406 14.480469 9.898438 14.902344 10.605469 15 C 11.523438 15.074219 12.105469 14.703125 12.734375 14.273438 C 13.871094 13.285156 13.984375 11.554688 13.121094 10.308594 C 12.679688 9.671875 11.976562 9.289062 11.253906 9.265625 C 10.269531 9.273438 9.601562 9.714844 9.0625 10.339844 Z M 19.035156 9.4375 C 18.117188 9.46875 17.375 10.105469 16.921875 10.789062 C 16.402344 11.578125 16.097656 12.558594 16.519531 13.523438 C 17.328125 15.378906 20.117188 15.355469 21.230469 13.472656 C 21.742188 12.601562 21.609375 11.613281 21.230469 10.898438 C 20.847656 10.183594 20.273438 9.597656 19.4375 9.464844 C 19.304688 9.441406 19.167969 9.433594 19.035156 9.4375 Z M 27.128906 9.613281 C 26.84375 9.605469 26.550781 9.632812 26.273438 9.707031 C 25.171875 10 24.230469 11.140625 24.375 12.597656 C 24.445312 13.332031 24.78125 14.050781 25.390625 14.542969 C 26 15.035156 26.882812 15.257812 27.8125 15.066406 C 28.882812 14.847656 29.546875 13.984375 29.765625 13.148438 C 29.988281 12.316406 29.933594 11.464844 29.417969 10.777344 C 28.875 10.054688 28.03125 9.625 27.128906 9.613281 Z M 11.179688 10.980469 C 11.386719 10.980469 11.546875 11.046875 11.714844 11.285156 C 12.089844 11.828125 11.984375 12.648438 11.609375 12.976562 C 11.234375 13.304688 10.996094 13.332031 10.832031 13.308594 C 10.667969 13.289062 10.5 13.175781 10.351562 12.960938 C 10.066406 12.558594 9.980469 11.902344 10.355469 11.4375 C 10.558594 11.171875 10.925781 11.003906 11.179688 10.980469 Z M 19.15625 11.167969 C 19.1875 11.171875 19.546875 11.378906 19.71875 11.703125 C 19.890625 12.023438 19.921875 12.324219 19.757812 12.597656 C 19.273438 13.421875 18.242188 13.199219 18.085938 12.839844 C 18.023438 12.703125 18.070312 12.15625 18.351562 11.730469 C 18.636719 11.300781 18.988281 11.140625 19.15625 11.164062 Z M 28.039062 11.796875 C 28.09375 11.867188 28.21875 12.335938 28.121094 12.707031 C 28.019531 13.078125 27.859375 13.308594 27.464844 13.390625 C 26.957031 13.496094 26.675781 13.390625 26.460938 13.214844 C 26.246094 13.042969 26.105469 12.75 26.074219 12.4375 C 25.996094 11.664062 26.273438 11.484375 26.714844 11.367188 C 27.226562 11.242188 27.808594 11.460938 28.039062 11.796875 Z M 28.039062 11.796875 "/>
<path style=" stroke:none;fill-rule:nonzero;fill:rgb(100%,100%,100%);fill-opacity:1;" d="M 48.449219 4.207031 C 48.464844 3.988281 48.542969 3.792969 48.691406 3.617188 C 48.835938 3.445312 49.054688 3.347656 49.28125 3.355469 L 55.023438 3.355469 C 55.214844 3.355469 55.414062 3.4375 55.621094 3.597656 C 55.816406 3.738281 55.933594 3.964844 55.929688 4.207031 L 55.929688 13.378906 L 65.535156 13.378906 L 65.535156 4.207031 C 65.535156 3.976562 65.617188 3.773438 65.777344 3.609375 C 65.9375 3.4375 66.148438 3.355469 66.40625 3.355469 L 72.066406 3.355469 C 72.324219 3.355469 72.550781 3.417969 72.746094 3.546875 C 72.9375 3.679688 73.035156 3.882812 73.035156 4.167969 L 73.035156 31.242188 C 73.035156 31.527344 72.949219 31.738281 72.78125 31.878906 C 72.617188 32.023438 72.394531 32.09375 72.125 32.09375 L 66.40625 32.09375 C 66.148438 32.09375 65.9375 32.023438 65.777344 31.878906 C 65.617188 31.738281 65.535156 31.527344 65.535156 31.242188 L 65.535156 20.25 L 55.929688 20.25 L 55.929688 31.242188 C 55.929688 31.511719 55.84375 31.722656 55.667969 31.871094 C 55.496094 32.019531 55.261719 32.09375 54.964844 32.09375 L 49.28125 32.09375 C 48.742188 32.09375 48.464844 31.839844 48.449219 31.339844 Z M 101.328125 31.765625 C 101.160156 31.90625 100.984375 31.996094 100.796875 32.035156 C 100.621094 32.074219 100.445312 32.09375 100.265625 32.09375 L 97.347656 32.09375 C 97.117188 32.09375 96.914062 32.050781 96.75 31.96875 C 96.582031 31.882812 96.4375 31.769531 96.324219 31.628906 C 96.203125 31.484375 96.105469 31.320312 96.035156 31.144531 C 95.957031 30.964844 95.890625 30.777344 95.839844 30.585938 L 95.242188 28.105469 C 95.046875 28.507812 94.769531 28.960938 94.398438 29.472656 C 94.003906 30.011719 93.53125 30.492188 93 30.902344 C 92.433594 31.347656 91.753906 31.722656 90.96875 32.027344 C 90.183594 32.328125 89.28125 32.480469 88.261719 32.480469 C 86.796875 32.480469 85.460938 32.195312 84.261719 31.628906 C 83.089844 31.082031 82.046875 30.289062 81.199219 29.308594 C 80.355469 28.328125 79.703125 27.179688 79.238281 25.871094 C 78.773438 24.5625 78.542969 23.164062 78.542969 21.683594 L 78.542969 9.007812 C 78.542969 8.515625 78.648438 8.144531 78.863281 7.894531 C 79.074219 7.640625 79.410156 7.515625 79.875 7.515625 L 84.339844 7.515625 C 84.894531 7.515625 85.273438 7.609375 85.480469 7.796875 C 85.6875 7.984375 85.789062 8.347656 85.789062 8.890625 L 85.789062 21.488281 C 85.789062 22.042969 85.917969 22.570312 86.167969 23.066406 C 86.417969 23.5625 86.75 24 87.164062 24.382812 C 87.574219 24.761719 88.042969 25.0625 88.5625 25.28125 C 89.085938 25.5 89.617188 25.609375 90.15625 25.609375 C 90.621094 25.609375 91.101562 25.5 91.597656 25.28125 C 92.097656 25.058594 92.558594 24.761719 92.96875 24.402344 C 93.386719 24.035156 93.734375 23.601562 94.003906 23.105469 C 94.273438 22.605469 94.410156 22.082031 94.410156 21.527344 L 94.410156 8.949219 C 94.410156 8.730469 94.453125 8.511719 94.535156 8.289062 C 94.621094 8.070312 94.746094 7.902344 94.914062 7.785156 C 95.078125 7.683594 95.238281 7.613281 95.386719 7.574219 C 95.535156 7.535156 95.707031 7.515625 95.898438 7.515625 L 100.265625 7.515625 C 100.820312 7.515625 101.21875 7.652344 101.464844 7.921875 C 101.707031 8.195312 101.832031 8.554688 101.832031 9.007812 L 101.832031 30.660156 C 101.832031 30.90625 101.777344 31.132812 101.667969 31.339844 C 101.558594 31.546875 101.40625 31.707031 101.214844 31.824219 Z M 123.765625 29.09375 C 123.417969 29.441406 123.035156 29.816406 122.617188 30.214844 C 122.199219 30.617188 121.738281 30.992188 121.234375 31.339844 C 120.730469 31.6875 120.1875 31.976562 119.613281 32.199219 C 119.015625 32.429688 118.378906 32.542969 117.738281 32.539062 C 115.984375 32.539062 114.371094 32.210938 112.894531 31.550781 C 111.457031 30.917969 110.160156 30 109.089844 28.851562 C 108.023438 27.710938 107.195312 26.367188 106.59375 24.816406 C 105.996094 23.269531 105.695312 21.605469 105.695312 19.824219 C 105.695312 18.03125 105.996094 16.363281 106.59375 14.820312 C 107.195312 13.28125 108.023438 11.9375 109.089844 10.796875 C 110.160156 9.648438 111.457031 8.734375 112.894531 8.105469 C 114.371094 7.457031 115.984375 7.128906 117.738281 7.128906 C 118.445312 7.128906 119.09375 7.234375 119.679688 7.4375 C 120.246094 7.636719 120.785156 7.902344 121.285156 8.230469 C 121.765625 8.554688 122.210938 8.917969 122.617188 9.324219 C 123.023438 9.730469 123.40625 10.128906 123.765625 10.515625 L 123.765625 1.671875 C 123.765625 1.257812 123.894531 0.910156 124.144531 0.628906 C 124.394531 0.34375 124.773438 0.203125 125.273438 0.203125 L 129.625 0.203125 C 129.792969 0.203125 129.96875 0.238281 130.15625 0.308594 C 130.339844 0.378906 130.511719 0.476562 130.667969 0.609375 C 130.820312 0.738281 130.945312 0.890625 131.042969 1.070312 C 131.140625 1.253906 131.1875 1.453125 131.1875 1.671875 L 131.1875 30.605469 C 131.1875 31.597656 130.667969 32.09375 129.625 32.09375 L 125.835938 32.09375 C 125.578125 32.09375 125.378906 32.0625 125.238281 31.996094 C 125.097656 31.933594 124.972656 31.835938 124.878906 31.714844 C 124.769531 31.574219 124.683594 31.417969 124.617188 31.253906 C 124.527344 31.035156 124.429688 30.816406 124.328125 30.605469 Z M 112.652344 19.824219 C 112.648438 20.636719 112.78125 21.445312 113.050781 22.214844 C 113.3125 22.957031 113.691406 23.597656 114.179688 24.140625 C 114.675781 24.683594 115.277344 25.125 115.949219 25.425781 C 116.640625 25.742188 117.402344 25.902344 118.238281 25.902344 C 119.0625 25.902344 119.839844 25.753906 120.570312 25.457031 C 121.277344 25.171875 121.921875 24.753906 122.472656 24.226562 C 123.019531 23.699219 123.460938 23.070312 123.777344 22.378906 C 124.105469 21.667969 124.289062 20.90625 124.328125 20.09375 L 124.328125 19.824219 C 124.332031 19.015625 124.171875 18.210938 123.863281 17.464844 C 123.5625 16.730469 123.128906 16.058594 122.578125 15.488281 C 122.027344 14.917969 121.371094 14.464844 120.644531 14.144531 C 119.886719 13.8125 119.066406 13.644531 118.238281 13.652344 C 117.402344 13.652344 116.640625 13.816406 115.949219 14.144531 C 115.257812 14.472656 114.671875 14.921875 114.179688 15.488281 C 113.683594 16.070312 113.300781 16.742188 113.050781 17.464844 C 112.785156 18.222656 112.652344 19.019531 112.65625 19.824219 Z M 153.628906 29.09375 C 153.28125 29.441406 152.894531 29.816406 152.476562 30.214844 C 152.058594 30.617188 151.597656 30.992188 151.09375 31.339844 C 150.589844 31.6875 150.046875 31.976562 149.472656 32.199219 C 148.875 32.429688 148.238281 32.542969 147.597656 32.539062 C 145.84375 32.539062 144.230469 32.210938 142.757812 31.550781 C 141.316406 30.921875 140.023438 30 138.949219 28.851562 C 137.886719 27.710938 137.054688 26.367188 136.457031 24.816406 C 135.855469 23.269531 135.554688 21.605469 135.554688 19.824219 C 135.554688 18.03125 135.855469 16.363281 136.457031 14.820312 C 137.054688 13.28125 137.886719 11.9375 138.949219 10.796875 C 140.019531 9.648438 141.316406 8.734375 142.757812 8.105469 C 144.230469 7.457031 145.84375 7.128906 147.597656 7.128906 C 148.304688 7.128906 148.953125 7.234375 149.539062 7.4375 C 150.105469 7.636719 150.644531 7.902344 151.144531 8.230469 C 151.628906 8.554688 152.070312 8.917969 152.476562 9.324219 C 152.882812 9.730469 153.265625 10.128906 153.628906 10.515625 L 153.628906 1.671875 C 153.628906 1.257812 153.753906 0.910156 154.003906 0.628906 C 154.257812 0.34375 154.632812 0.203125 155.136719 0.203125 L 159.484375 0.203125 C 159.652344 0.203125 159.828125 0.238281 160.015625 0.308594 C 160.203125 0.378906 160.371094 0.476562 160.527344 0.609375 C 160.679688 0.738281 160.808594 0.890625 160.902344 1.070312 C 161 1.253906 161.050781 1.453125 161.050781 1.671875 L 161.050781 30.605469 C 161.050781 31.597656 160.527344 32.09375 159.484375 32.09375 L 155.695312 32.09375 C 155.4375 32.09375 155.238281 32.0625 155.097656 31.996094 C 154.957031 31.933594 154.832031 31.835938 154.738281 31.714844 C 154.632812 31.574219 154.542969 31.417969 154.476562 31.253906 C 154.386719 31.035156 154.289062 30.816406 154.1875 30.605469 Z M 142.515625 19.824219 C 142.507812 20.636719 142.640625 21.445312 142.910156 22.214844 C 143.175781 22.957031 143.550781 23.597656 144.042969 24.140625 C 144.535156 24.6875 145.136719 25.125 145.808594 25.425781 C 146.5 25.742188 147.261719 25.902344 148.101562 25.902344 C 148.925781 25.902344 149.699219 25.753906 150.429688 25.457031 C 151.136719 25.171875 151.78125 24.753906 152.332031 24.226562 C 152.878906 23.699219 153.320312 23.070312 153.636719 22.378906 C 153.964844 21.667969 154.148438 20.90625 154.1875 20.09375 L 154.1875 19.824219 C 154.191406 19.015625 154.03125 18.210938 153.722656 17.464844 C 153.425781 16.730469 152.988281 16.058594 152.4375 15.488281 C 151.886719 14.917969 151.230469 14.464844 150.507812 14.144531 C 149.746094 13.8125 148.929688 13.644531 148.101562 13.652344 C 147.261719 13.652344 146.5 13.816406 145.808594 14.144531 C 145.121094 14.472656 144.53125 14.921875 144.042969 15.488281 C 143.542969 16.070312 143.160156 16.742188 142.910156 17.464844 C 142.644531 18.222656 142.511719 19.019531 142.515625 19.824219 Z M 166.191406 1.691406 C 166.191406 1.277344 166.292969 0.929688 166.5 0.648438 C 166.707031 0.363281 167.058594 0.21875 167.5625 0.21875 L 172.296875 0.21875 C 172.425781 0.21875 172.5625 0.257812 172.703125 0.328125 C 172.851562 0.402344 172.984375 0.503906 173.101562 0.628906 C 173.222656 0.757812 173.324219 0.910156 173.410156 1.089844 C 173.492188 1.273438 173.535156 1.472656 173.535156 1.691406 L 173.535156 30.605469 C 173.535156 31.09375 173.398438 31.464844 173.117188 31.714844 C 172.84375 31.96875 172.484375 32.09375 172.046875 32.09375 L 167.5625 32.09375 C 167.058594 32.09375 166.707031 31.96875 166.5 31.714844 C 166.292969 31.464844 166.191406 31.09375 166.191406 30.605469 Z M 198.738281 29.152344 C 197.617188 30.1875 196.320312 31.015625 194.910156 31.601562 C 193.484375 32.1875 191.953125 32.488281 190.40625 32.480469 C 188.640625 32.480469 186.972656 32.160156 185.402344 31.511719 C 183.867188 30.890625 182.460938 29.980469 181.265625 28.832031 C 180.074219 27.683594 179.117188 26.3125 178.445312 24.796875 C 177.746094 23.25 177.402344 21.566406 177.402344 19.746094 C 177.402344 18.613281 177.539062 17.511719 177.816406 16.445312 C 178.085938 15.40625 178.480469 14.402344 178.996094 13.457031 C 179.503906 12.527344 180.128906 11.667969 180.851562 10.894531 C 181.570312 10.117188 182.394531 9.445312 183.296875 8.890625 C 184.210938 8.328125 185.199219 7.890625 186.234375 7.59375 C 187.320312 7.28125 188.445312 7.125 189.574219 7.128906 C 190.644531 7.128906 191.683594 7.273438 192.6875 7.554688 C 193.691406 7.839844 194.636719 8.238281 195.519531 8.753906 C 196.402344 9.269531 197.210938 9.890625 197.945312 10.613281 C 198.667969 11.324219 199.304688 12.121094 199.839844 12.984375 C 200.367188 13.839844 200.78125 14.765625 201.066406 15.730469 C 201.355469 16.707031 201.5 17.707031 201.5 18.738281 C 201.5 19.410156 201.492188 19.960938 201.472656 20.386719 C 201.453125 20.8125 201.351562 21.148438 201.171875 21.402344 C 200.992188 21.652344 200.691406 21.828125 200.273438 21.921875 C 199.855469 22.019531 199.238281 22.070312 198.429688 22.070312 L 184.511719 22.070312 C 184.640625 22.894531 184.902344 23.585938 185.296875 24.140625 C 185.660156 24.667969 186.121094 25.117188 186.65625 25.464844 C 187.171875 25.792969 187.71875 26.03125 188.300781 26.171875 C 188.835938 26.308594 189.390625 26.378906 189.941406 26.386719 C 190.40625 26.386719 190.882812 26.335938 191.371094 26.238281 C 191.855469 26.144531 192.332031 26.015625 192.792969 25.851562 C 193.226562 25.703125 193.648438 25.515625 194.050781 25.289062 C 194.429688 25.078125 194.734375 24.855469 194.96875 24.625 C 195.175781 24.457031 195.351562 24.332031 195.5 24.246094 C 195.648438 24.160156 195.804688 24.121094 195.972656 24.121094 C 196.140625 24.121094 196.3125 24.179688 196.488281 24.292969 C 196.699219 24.441406 196.894531 24.613281 197.074219 24.796875 L 199.125 27.121094 C 199.265625 27.289062 199.355469 27.441406 199.394531 27.574219 C 199.433594 27.710938 199.453125 27.847656 199.453125 27.992188 C 199.453125 28.25 199.382812 28.472656 199.238281 28.660156 C 199.097656 28.847656 198.925781 29.011719 198.738281 29.152344 Z M 189.441406 13.03125 C 188.9375 13.03125 188.453125 13.132812 187.980469 13.332031 C 187.503906 13.535156 187.058594 13.804688 186.65625 14.132812 C 186.246094 14.46875 185.875 14.851562 185.546875 15.277344 C 185.234375 15.679688 184.964844 16.113281 184.746094 16.574219 L 194.621094 16.574219 C 194.359375 16.089844 194.066406 15.621094 193.742188 15.179688 C 193.429688 14.757812 193.066406 14.382812 192.660156 14.058594 C 192.242188 13.726562 191.769531 13.472656 191.265625 13.304688 C 190.746094 13.121094 190.136719 13.03125 189.441406 13.03125 Z M 189.441406 13.03125 "/>
</g>
</svg>
